<svg id="visual" viewBox="0 0 500 300" width="500" height="300" xmlns="http://www.w3.org/2000/svg" xmlns:xlink="http://www.w3.org/1999/xlink" version="1.1"><rect x="0" y="0" width="500" height="300" fill="rgba(0,0,0,0)"></rect><defs><linearGradient id="grad1_0" x1="40%" y1="0%" x2="100%" y2="100%"><stop offset="16.666666666666664%" stop-color="#ffffff" stop-opacity="1"></stop><stop offset="83.33333333333334%" stop-color="#ffffff" stop-opacity="1"></stop></linearGradient></defs><defs><linearGradient id="grad2_0" x1="0%" y1="0%" x2="60%" y2="100%"><stop offset="16.666666666666664%" stop-color="#ffffff" stop-opacity="1"></stop><stop offset="83.33333333333334%" stop-color="#ffffff" stop-opacity="1"></stop></linearGradient></defs><g transform="translate(500, 0)"><path d="M0 131.2C-11 121.9 -22 112.7 -35.5 109.4C-49 106 -65 108.6 -74.1 101.9C-83.1 95.2 -85.3 79.2 -93.8 68.2C-102.4 57.1 -117.5 51.1 -124.8 40.5C-132.1 30 -131.6 15 -131.2 0L0 0Z" fill="#1d212d"></path></g><g transform="translate(0, 300)"><path d="M0 -131.2C13.2 -128.1 26.5 -124.9 39.2 -120.8C52 -116.6 64.3 -111.5 75.8 -104.4C87.4 -97.2 98.2 -88.2 106.1 -77.1C114 -66.1 119 -53 122.7 -39.9C126.4 -26.7 128.8 -13.3 131.2 0L0 0Z" fill="#1d212d"></path></g></svg>