<svg xmlns="http://www.w3.org/2000/svg" viewBox="0 0 39.27 10.61"><defs><style>.cls-1{fill:#6b2a5f;}.cls-2{fill:#b54d78;}</style></defs><g id="Layer_2" data-name="Layer 2"><g id="Layer_1-2" data-name="Layer 1"><path class="cls-1" d="M32,8.23h0c-1.43,0-3.08,0-4.84,0h-.22L22,8.15H20.67l-5.13-.05-3.31,0C8.81,8,6.45,8,6.45,7.92a2,2,0,0,0,1-.76,2.09,2.09,0,0,0,.37-1.24A1.88,1.88,0,0,0,6.43,4a1.79,1.79,0,0,0,1.13-1.7A1.92,1.92,0,0,0,6.75.62,2.3,2.3,0,0,0,5.94.25s2.7,0,6.52-.08l2.88,0C20.86.1,27.61.06,32.09,0h1.23L37,0H32.25L15,.08H12.86L0,.14V.33A.47.47,0,0,1,.3.48.62.62,0,0,1,.38.83V7.45c0-.65,0-.11,0,.69l12.5,0H15l5.66,0h1.25l5,0h.22l5.21,0H37l-3.41,0ZM5.53,7.33a8.09,8.09,0,0,1-1,0H1.3l3.15-3a5.65,5.65,0,0,1,1.37.12,1.37,1.37,0,0,1,.73.46,1.44,1.44,0,0,1,.35,1,1.5,1.5,0,0,1-.2.77,1.22,1.22,0,0,1-.54.49A2.54,2.54,0,0,1,5.53,7.33ZM.34,8.14h0C.27,12.73.31,9.84.34,8.14ZM0,8v.19H.3V7.79C.3,7.71.15,7.91,0,8Z"/><path class="cls-2" d="M7,5.9a1.53,1.53,0,0,1-.21.81,1.28,1.28,0,0,1-.56.52,2.74,2.74,0,0,1-.67.18,8.92,8.92,0,0,1-1.07,0H1.16L4.47,4.27a6.16,6.16,0,0,1,1.44.13,1.45,1.45,0,0,1,.77.48A1.53,1.53,0,0,1,7,5.9Z"/><path class="cls-2" d="M6.68,2.28A1.18,1.18,0,0,1,6.49,3,1.1,1.1,0,0,1,6,3.4a2.63,2.63,0,0,1-.6.15,7.91,7.91,0,0,1-1,0H1.3L4.32.9A5.9,5.9,0,0,1,5.64,1a1.38,1.38,0,0,1,.7.39A1.25,1.25,0,0,1,6.68,2.28Z"/><path class="cls-1" d="M18.44,2.61a3.88,3.88,0,0,0-1.09-1.5,4.57,4.57,0,0,0-2-1h0L15,.08h0A7.23,7.23,0,0,0,13.94,0a6,6,0,0,0-1.07.09h0a2.7,2.7,0,0,0-.39.08h0a4.58,4.58,0,0,0-.66.19,4.07,4.07,0,0,0-2,1.58,4,4,0,0,0-.64,2.2,4,4,0,0,0,1.39,3,4.25,4.25,0,0,0,1.67.88,3.88,3.88,0,0,0,.61.14h0a6.36,6.36,0,0,0,1.1.09A7.13,7.13,0,0,0,15,8.2h0a3.88,3.88,0,0,0,.49-.11h0a4.59,4.59,0,0,0,.56-.18,4,4,0,0,0,2-1.58,3.89,3.89,0,0,0,.65-2.14A4.15,4.15,0,0,0,18.44,2.61ZM16.82,6.47a4,4,0,0,1-2.87,1,4,4,0,0,1-2.86-1l4.5-5.42a3.35,3.35,0,0,1,1.23.76,3.1,3.1,0,0,1,1,2.37A3.06,3.06,0,0,1,16.82,6.47Z"/><path class="cls-2" d="M18,4.18a3.28,3.28,0,0,1-1,2.44,4.27,4.27,0,0,1-3.06,1.07,4.23,4.23,0,0,1-3.05-1.07L15.67.84A3.74,3.74,0,0,1,17,1.65,3.31,3.31,0,0,1,18,4.18Z"/><path class="cls-1" d="M27.41,1.25a1.93,1.93,0,0,0-.65-.68,2.74,2.74,0,0,0-.88-.34A8.16,8.16,0,0,0,24.5.14H20.29V.33a.64.64,0,0,1,.3.15.41.41,0,0,1,.08.27V7.52a.47.47,0,0,1-.08.28,1.35,1.35,0,0,0,.08.34.19.19,0,0,1,0,.08,11.81,11.81,0,0,1,.61,2.2v.19l.64-2.39,0-.07V8a.65.65,0,0,1-.29-.15.47.47,0,0,1-.08-.28v-3H24.5a6.18,6.18,0,0,0,1.7-.18,2.06,2.06,0,0,0,1.48-2A2.15,2.15,0,0,0,27.41,1.25ZM26.17,3.52a1.88,1.88,0,0,1-.59.21,7.65,7.65,0,0,1-1,0h-3l3-2.88a7.83,7.83,0,0,1,1,0,1.92,1.92,0,0,1,.58.21,1.27,1.27,0,0,1,.59,1.18A1.27,1.27,0,0,1,26.17,3.52Z"/><path class="cls-2" d="M27.08,2.34a1.43,1.43,0,0,1-.66,1.33,2.36,2.36,0,0,1-.66.24,9.79,9.79,0,0,1-1.12,0H21.27L24.64.72a7.72,7.72,0,0,1,1.13.06,2.1,2.1,0,0,1,.65.23A1.43,1.43,0,0,1,27.08,2.34Z"/><path class="cls-1" d="M29.91,2.39a1,1,0,0,0,.18.55,1.1,1.1,0,0,0,.46.39,2.56,2.56,0,0,0,.75.2c.28,0,.75.07,1.4.09a16.76,16.76,0,0,1,1.93.12,2.87,2.87,0,0,1,.95.3,1.8,1.8,0,0,1,1,1.69,2.17,2.17,0,0,1-.9,1.78,4.46,4.46,0,0,1-2.76.77,6.61,6.61,0,0,1-1.77-.21c-.51-.13-2.85-2.13-3.55-2.49a1.71,1.71,0,0,0-.35-.14c-.05,0-.15,4.94-.27,5.08l-.16-5,.88-1.47.16.1a1,1,0,0,0-.11.31,15.6,15.6,0,0,0,2.49,2.32,5.63,5.63,0,0,0,1.3.51,5.83,5.83,0,0,0,1.36.16,3.41,3.41,0,0,0,2.25-.65,1.33,1.33,0,0,0,.51-1,1.1,1.1,0,0,0-.88-1.08,2.22,2.22,0,0,0-.58-.13l-1.71-.07a10.47,10.47,0,0,1-1.58-.16,3.25,3.25,0,0,1-1-.36A1.8,1.8,0,0,1,29,2.41,1.94,1.94,0,0,1,29.62,1a3.29,3.29,0,0,1,1.3-.71A6.09,6.09,0,0,1,32.73,0a6.42,6.42,0,0,1,1.49.16c.46.11,3.78,1.66,4.35,1.91a.93.93,0,0,0,.24.09c.07,0,.17-.08.29-.24l.17.08-.35,8.52V2.63l-3.32-1c.07-.18,0,0,0,0s-.18-.15-.47-.29A5.92,5.92,0,0,0,32.63.8a4.1,4.1,0,0,0-1.88.41Z"/></g></g></svg>