<svg xmlns="http://www.w3.org/2000/svg" viewBox="0 0 71.48 31.06"><defs><style>.cls-1{fill:#6b2a5f;}.cls-2{fill:#b54d78;}</style></defs><g id="Layer_2" data-name="Layer 2"><g id="Layer_1-2" data-name="Layer 1"><path class="cls-1" d="M58.27,24.09H58.2c-2.61,0-5.61-.06-8.81-.12a.9.9,0,0,1-.4,0c-2.9,0-6-.06-9-.11-.78,0-1.56,0-2.34,0-3.21-.06-6.38-.12-9.34-.15-2.15-.06-4.17-.09-6-.12-6.22-.14-10.52-.26-10.52-.38A4.43,4.43,0,0,0,13.56,21a8.88,8.88,0,0,0,.67-3.63c0-2.87-.83-4.74-2.53-5.68a5.88,5.88,0,0,0,2.06-5,7.22,7.22,0,0,0-1.47-4.86A3.7,3.7,0,0,0,10.81.74c0-.06,4.92-.15,11.87-.24,1.64,0,3.41-.06,5.24-.06C38,.3,50.26.18,58.41.09c.79,0,1.53,0,2.24,0L67.33,0,60.4,0h-.11L58.8.06s-.08,0-.09,0L27.34.24l-3.93,0L0,.41V1a.84.84,0,0,1,.55.44,2.77,2.77,0,0,1,.14,1V21.81c0-1.9,0-.32-.07,2L23.37,24l4,0,10.3.06h2.28l9.05.06h.4l9.48.06,1.84,0h.07l6.52,0-6.21-.09C60.22,24.15,59.27,24.12,58.27,24.09Zm-48.2-2.63a10,10,0,0,1-1.86.14H2.37L8.1,12.74a6.41,6.41,0,0,1,2.49.35,2.66,2.66,0,0,1,1.33,1.34,6,6,0,0,1,.64,2.84,6.68,6.68,0,0,1-.36,2.25,3.08,3.08,0,0,1-1,1.44A3.42,3.42,0,0,1,10.07,21.46ZM.62,23.83H.55C.49,37.26.56,28.8.62,23.83ZM0,23.27v.56H.55v-1C.55,22.57.27,23.15,0,23.27Z"/><path class="cls-2" d="M12.82,17.28a6.89,6.89,0,0,1-.38,2.37,3.21,3.21,0,0,1-1,1.5,3.52,3.52,0,0,1-1.21.53,9.92,9.92,0,0,1-1.95.15H2.1l6-9.32a6.88,6.88,0,0,1,2.63.37,2.8,2.8,0,0,1,1.39,1.41A6.29,6.29,0,0,1,12.82,17.28Z"/><path class="cls-2" d="M12.16,6.68a5.06,5.06,0,0,1-.35,2,2.55,2.55,0,0,1-1,1.28,3.17,3.17,0,0,1-1.09.44A8.92,8.92,0,0,1,8,10.51H2.37L7.86,2.64A7,7,0,0,1,10.27,3,2.62,2.62,0,0,1,11.54,4.1,5.06,5.06,0,0,1,12.16,6.68Z"/><path class="cls-1" d="M33.57,7.64a12.67,12.67,0,0,0-2-4.39A7.77,7.77,0,0,0,28,.44s0,0,0,0c-.2-.08-.38-.14-.58-.2h0A8,8,0,0,0,25.38,0a6.76,6.76,0,0,0-1.95.27h0A3.26,3.26,0,0,0,22.7.5h0a6,6,0,0,0-1.2.56,9.32,9.32,0,0,0-3.62,4.62,17,17,0,0,0-1.17,6.44,17.5,17.5,0,0,0,.55,4.45,12.92,12.92,0,0,0,2,4.42,7.53,7.53,0,0,0,3,2.57,4.5,4.5,0,0,0,1.11.41h0a7.16,7.16,0,0,0,2,.27A8,8,0,0,0,27.32,24h0a4.73,4.73,0,0,0,.89-.32h0a6.58,6.58,0,0,0,1-.53,9.21,9.21,0,0,0,3.62-4.62,16.75,16.75,0,0,0,1.18-6.26A19.08,19.08,0,0,0,33.57,7.64Zm-2.95,11.3a6,6,0,0,1-5.23,3,5.9,5.9,0,0,1-5.2-3L28.38,3.08A6.54,6.54,0,0,1,30.62,5.3a12.41,12.41,0,0,1,1.75,6.94A12.17,12.17,0,0,1,30.62,18.94Z"/><path class="cls-2" d="M32.76,12.22a12.92,12.92,0,0,1-1.86,7.14,6.47,6.47,0,0,1-11.11,0l8.73-16.9A7,7,0,0,1,30.9,4.83,13.18,13.18,0,0,1,32.76,12.22Z"/><path class="cls-1" d="M49.9,3.66a5.4,5.4,0,0,0-1.19-2,4,4,0,0,0-1.6-1A9.15,9.15,0,0,0,44.6.41H36.93V1a1.1,1.1,0,0,1,.55.44,1.75,1.75,0,0,1,.15.79V22a2,2,0,0,1-.15.82,6.15,6.15,0,0,0,.15,1,1.29,1.29,0,0,1,0,.23c.42,2.17,1.31,6.35,1.11,6.44v.56l1.17-7,0-.2v-.59a1.15,1.15,0,0,1-.52-.44A2,2,0,0,1,39.3,22V13.29h5.3a7.12,7.12,0,0,0,3.09-.53,4.19,4.19,0,0,0,1.79-1.84,8.54,8.54,0,0,0,.91-4.13A9.69,9.69,0,0,0,49.9,3.66Zm-2.26,6.65a2.84,2.84,0,0,1-1.08.61,8.5,8.5,0,0,1-1.8.15H39.3l5.46-8.43a9.66,9.66,0,0,1,1.82.14,3,3,0,0,1,1.06.62,4.64,4.64,0,0,1,1.07,3.45A4.68,4.68,0,0,1,47.64,10.31Z"/><path class="cls-2" d="M49.3,6.85a5.25,5.25,0,0,1-1.21,3.89,3.07,3.07,0,0,1-1.21.69,9.74,9.74,0,0,1-2,.16H38.71l6.15-9.48a9.81,9.81,0,0,1,2,.17A3.14,3.14,0,0,1,48.09,3,5.21,5.21,0,0,1,49.3,6.85Z"/><path class="cls-1" d="M54.45,7a4,4,0,0,0,.32,1.61,2.54,2.54,0,0,0,.84,1.14,3.36,3.36,0,0,0,1.36.59,18.49,18.49,0,0,0,2.55.25A21.27,21.27,0,0,1,63,11a3.67,3.67,0,0,1,1.74.87,6.3,6.3,0,0,1,1.81,4.95A8,8,0,0,1,64.94,22a6.08,6.08,0,0,1-5,2.26,8,8,0,0,1-3.22-.6c-.92-.4-5.19-6.23-6.46-7.31a2.14,2.14,0,0,0-.63-.39c-.11,0-.27,14.44-.5,14.85l-.29-14.53,1.6-4.3.3.27a4.42,4.42,0,0,0-.2.93,41.37,41.37,0,0,0,4.53,6.79,9,9,0,0,0,2.37,1.49,6.62,6.62,0,0,0,2.47.45A4.75,4.75,0,0,0,64,20a5,5,0,0,0,.93-3,3.29,3.29,0,0,0-1.59-3.17,2.86,2.86,0,0,0-1.06-.37c-.37-.05-1.41-.13-3.12-.23a12.79,12.79,0,0,1-2.88-.45,5,5,0,0,1-1.85-1.06,4.79,4.79,0,0,1-1.2-1.92,8.07,8.07,0,0,1-.44-2.69A7.74,7.74,0,0,1,53.92,2.8a5.83,5.83,0,0,1,2.36-2A7.27,7.27,0,0,1,59.58,0a7.71,7.71,0,0,1,2.71.47c.84.31,6.88,4.84,7.93,5.6a1.27,1.27,0,0,0,.44.24c.12,0,.3-.23.52-.69l.3.25-.63,24.91V7.69l-6-2.89c.13-.52,0,.12,0,0,0-.34-.32-.44-.85-.84a7.45,7.45,0,0,0-4.54-1.61A5.3,5.3,0,0,0,56,3.53Z"/></g></g></svg>