<svg id="visual" viewBox="0 0 900 600" width="900" height="600" xmlns="http://www.w3.org/2000/svg" xmlns:xlink="http://www.w3.org/1999/xlink" version="1.1"><rect x="0" y="0" width="900" height="600" fill="rgba(0,0,0,0)"></rect><path d="M649 600L642 585.7C635 571.3 621 542.7 615.8 514.2C610.7 485.7 614.3 457.3 618.8 428.8C623.3 400.3 628.7 371.7 627.7 343C626.7 314.3 619.3 285.7 622.3 257C625.3 228.3 638.7 199.7 630.7 171.2C622.7 142.7 593.3 114.3 574.7 85.8C556 57.3 548 28.7 544 14.3L540 0L900 0L900 14.3C900 28.7 900 57.3 900 85.8C900 114.3 900 142.7 900 171.2C900 199.7 900 228.3 900 257C900 285.7 900 314.3 900 343C900 371.7 900 400.3 900 428.8C900 457.3 900 485.7 900 514.2C900 542.7 900 571.3 900 585.7L900 600Z" fill="#fff"></path><path d="M666 600L657 585.7C648 571.3 630 542.7 623.7 514.2C617.3 485.7 622.7 457.3 637.8 428.8C653 400.3 678 371.7 680.2 343C682.3 314.3 661.7 285.7 653.7 257C645.7 228.3 650.3 199.7 654 171.2C657.7 142.7 660.3 114.3 667 85.8C673.7 57.3 684.3 28.7 689.7 14.3L695 0L900 0L900 14.3C900 28.7 900 57.3 900 85.8C900 114.3 900 142.7 900 171.2C900 199.7 900 228.3 900 257C900 285.7 900 314.3 900 343C900 371.7 900 400.3 900 428.8C900 457.3 900 485.7 900 514.2C900 542.7 900 571.3 900 585.7L900 600Z" fill="#fff"></path><path d="M658 600L658 585.7C658 571.3 658 542.7 661.7 514.2C665.3 485.7 672.7 457.3 681.5 428.8C690.3 400.3 700.7 371.7 710.7 343C720.7 314.3 730.3 285.7 730.8 257C731.3 228.3 722.7 199.7 711.5 171.2C700.3 142.7 686.7 114.3 691.7 85.8C696.7 57.3 720.3 28.7 732.2 14.3L744 0L900 0L900 14.3C900 28.7 900 57.3 900 85.8C900 114.3 900 142.7 900 171.2C900 199.7 900 228.3 900 257C900 285.7 900 314.3 900 343C900 371.7 900 400.3 900 428.8C900 457.3 900 485.7 900 514.2C900 542.7 900 571.3 900 585.7L900 600Z" fill="currentColor"></path><path d="M734 600L737.3 585.7C740.7 571.3 747.3 542.7 749.8 514.2C752.3 485.7 750.7 457.3 756.8 428.8C763 400.3 777 371.7 787.7 343C798.3 314.3 805.7 285.7 801.7 257C797.7 228.3 782.3 199.7 773.5 171.2C764.7 142.7 762.3 114.3 768 85.8C773.7 57.3 787.3 28.7 794.2 14.3L801 0L900 0L900 14.3C900 28.7 900 57.3 900 85.8C900 114.3 900 142.7 900 171.2C900 199.7 900 228.3 900 257C900 285.7 900 314.3 900 343C900 371.7 900 400.3 900 428.8C900 457.3 900 485.7 900 514.2C900 542.7 900 571.3 900 585.7L900 600Z" fill="currentColor"></path><path d="M839 600L834.5 585.7C830 571.3 821 542.7 812.7 514.2C804.3 485.7 796.7 457.3 797.5 428.8C798.3 400.3 807.7 371.7 811.5 343C815.3 314.3 813.7 285.7 811.8 257C810 228.3 808 199.7 808.5 171.2C809 142.7 812 114.3 814.3 85.8C816.7 57.3 818.3 28.7 819.2 14.3L820 0L900 0L900 14.3C900 28.7 900 57.3 900 85.8C900 114.3 900 142.7 900 171.2C900 199.7 900 228.3 900 257C900 285.7 900 314.3 900 343C900 371.7 900 400.3 900 428.8C900 457.3 900 485.7 900 514.2C900 542.7 900 571.3 900 585.7L900 600Z" fill="currentColor"></path></svg>