<svg id="visual" viewBox="0 0 1920 1080" width="1920" height="1080" xmlns="http://www.w3.org/2000/svg" xmlns:xlink="http://www.w3.org/1999/xlink" version="1.1"><rect x="0" y="0" width="1920" height="1080" fill="#FFFFFF"></rect><path d="M0 894L15.2 885.5C30.3 877 60.7 860 91.2 876.5C121.7 893 152.3 943 182.8 949.7C213.3 956.3 243.7 919.7 274.2 899C304.7 878.3 335.3 873.7 365.8 877.7C396.3 881.7 426.7 894.3 457.2 894.3C487.7 894.3 518.3 881.7 548.8 892.7C579.3 903.7 609.7 938.3 640 958.2C670.3 978 700.7 983 731.2 967C761.7 951 792.3 914 822.8 909.3C853.3 904.7 883.7 932.3 914.2 930C944.7 927.7 975.3 895.3 1005.8 900.2C1036.3 905 1066.7 947 1097.2 960.3C1127.7 973.7 1158.3 958.3 1188.8 954.3C1219.3 950.3 1249.7 957.7 1280 943C1310.3 928.3 1340.7 891.7 1371.2 870.8C1401.7 850 1432.3 845 1462.8 851.7C1493.3 858.3 1523.7 876.7 1554.2 896.7C1584.7 916.7 1615.3 938.3 1645.8 945.5C1676.3 952.7 1706.7 945.3 1737.2 938.3C1767.7 931.3 1798.3 924.7 1828.8 908.8C1859.3 893 1889.7 868 1904.8 855.5L1920 843L1920 1081L1904.8 1081C1889.7 1081 1859.3 1081 1828.8 1081C1798.3 1081 1767.7 1081 1737.2 1081C1706.7 1081 1676.3 1081 1645.8 1081C1615.3 1081 1584.7 1081 1554.2 1081C1523.7 1081 1493.3 1081 1462.8 1081C1432.3 1081 1401.7 1081 1371.2 1081C1340.7 1081 1310.3 1081 1280 1081C1249.7 1081 1219.3 1081 1188.8 1081C1158.3 1081 1127.7 1081 1097.2 1081C1066.7 1081 1036.3 1081 1005.8 1081C975.3 1081 944.7 1081 914.2 1081C883.7 1081 853.3 1081 822.8 1081C792.3 1081 761.7 1081 731.2 1081C700.7 1081 670.3 1081 640 1081C609.7 1081 579.3 1081 548.8 1081C518.3 1081 487.7 1081 457.2 1081C426.7 1081 396.3 1081 365.8 1081C335.3 1081 304.7 1081 274.2 1081C243.7 1081 213.3 1081 182.8 1081C152.3 1081 121.7 1081 91.2 1081C60.7 1081 30.3 1081 15.2 1081L0 1081Z" fill="#6b2a5f" stroke-linecap="round" stroke-linejoin="miter"></path></svg>